<svg width="140" height="140" viewBox="0 0 140 140" fill="none" xmlns="http://www.w3.org/2000/svg">
  <!-- Circle background -->
  <circle cx="70" cy="70" r="65" stroke="#b8c0c8" stroke-width="3" fill="none" opacity="0.3"/>
  
  <!-- Inner circle -->
  <circle cx="70" cy="70" r="50" stroke="#b8c0c8" stroke-width="2" fill="none" opacity="0.5"/>
  
  <!-- Car icon simplified -->
  <g transform="translate(40, 55)">
    <!-- Car body -->
    <path d="M5 15 L10 5 L50 5 L55 15 L60 15 L60 30 L55 30 L55 35 L50 35 L50 30 L10 30 L10 35 L5 35 L5 30 L0 30 L0 15 Z" 
          fill="#b8c0c8" opacity="0.7"/>
    
    <!-- Windows -->
    <rect x="15" y="8" width="12" height="7" fill="#1a1a1a" opacity="0.8"/>
    <rect x="33" y="8" width="12" height="7" fill="#1a1a1a" opacity="0.8"/>
    
    <!-- Wheels -->
    <circle cx="12" cy="30" r="5" fill="#b8c0c8"/>
    <circle cx="12" cy="30" r="3" fill="#1a1a1a"/>
    <circle cx="48" cy="30" r="5" fill="#b8c0c8"/>
    <circle cx="48" cy="30" r="3" fill="#1a1a1a"/>
  </g>
  
  <!-- Text "GROUP" at bottom -->
  <text x="70" y="115" font-family="Arial, sans-serif" font-size="12" font-weight="bold" 
        fill="#b8c0c8" text-anchor="middle" letter-spacing="2">GROUP</text>
</svg>

